<svg width="780" height="152" viewBox="0 0 780 152" fill="none" xmlns="http://www.w3.org/2000/svg">
    <path fill-rule="evenodd" clip-rule="evenodd"
        d="M6.8766 0C5.79633 6.4816 12.2779 15.1237 16.599 19.4448C22.0003 25.9264 27.4017 30.2475 34.9635 34.5685C46.8465 42.1304 60.8899 48.612 72.7729 56.1739C84.6558 63.7357 94.3782 73.4581 100.86 86.4213C106.261 97.224 110.582 112.348 107.341 124.231C107.341 125.311 107.341 125.311 106.261 126.391C105.181 116.669 94.3782 101.545 88.9769 96.1437C72.7729 78.8595 51.1675 72.3779 31.7227 61.5752C9.03714 48.612 -0.68527 32.408 6.8766 0ZM104.101 143.675C109.502 108.027 67.3715 87.5016 40.3649 75.6187C28.4819 71.2976 16.599 65.8963 7.95687 56.1739C6.8766 54.0133 1.47526 48.612 1.47526 44.2909C-13.6485 103.706 92.2177 97.224 104.101 143.675ZM68.4518 138.274C95.4585 144.756 101.94 152.318 101.94 152.318C101.94 152.318 101.94 141.515 92.2177 135.033C81.415 128.552 69.5321 124.231 55.4886 119.91C33.8833 113.428 29.5622 103.706 29.5622 103.706C32.803 127.471 45.7662 132.873 68.4518 138.274ZM64.1308 38.8896C113.823 57.2541 130.027 111.267 108.422 152.318C115.984 150.157 122.465 144.756 128.947 135.033C140.83 105.866 135.428 77.7792 114.903 58.3344C125.706 68.0568 145.151 84.2608 141.91 123.15C152.713 111.267 157.034 104.786 158.114 93.9832C160.275 77.7792 146.231 57.2541 132.188 47.5317C137.589 44.2909 154.873 28.0869 153.793 16.204C120.305 37.8093 90.0572 19.4448 64.1308 38.8896Z"
        fill="url(#paint0_linear_505_444)" />
    <path
        d="M322.22 73.3272L300.511 120.521C299.567 122.409 297.679 124.296 295.792 126.184C293.904 127.128 291.072 128.072 288.241 128.072C285.409 128.072 282.577 127.128 280.69 126.184C278.802 125.24 277.858 123.353 276.914 120.521L246.71 49.7303H267.475L289.184 100.7L309.95 55.3935C310.894 52.5619 312.781 50.6741 314.669 49.7303C316.557 48.7864 318.445 47.8425 322.22 47.8425C325.052 47.8425 327.883 48.7864 328.827 49.7303C330.715 50.6741 331.659 52.5619 333.547 55.3935L354.312 100.7L376.965 49.7303H397.73L366.582 120.521C365.638 122.409 363.751 124.296 361.863 126.184C359.975 127.128 357.144 128.072 354.312 128.072C351.48 128.072 349.593 127.128 347.705 126.184C345.817 125.24 343.929 123.353 342.985 120.521L322.22 73.3272ZM409.057 45.0109C406.225 45.0109 404.337 45.0109 403.393 43.1231C402.45 42.1793 401.506 40.2915 401.506 38.4037V30.8527C401.506 28.965 402.45 27.0772 403.393 26.1334C404.337 25.1895 406.225 24.2456 409.057 24.2456H415.664C418.495 24.2456 420.383 24.2456 421.327 26.1334C422.271 27.0772 423.215 28.965 423.215 30.8527V39.3476C423.215 41.2354 422.271 43.1231 421.327 44.067C420.383 45.0109 418.495 45.9548 415.664 45.9548H409.057V45.0109ZM401.506 105.419V48.7864H423.215V127.128C411.888 128.072 401.506 117.689 401.506 105.419ZM527.041 128.072C515.715 128.072 506.276 118.633 506.276 106.363V84.6537C506.276 81.8221 506.276 78.9904 505.332 76.1588C505.332 74.271 504.388 72.3833 502.5 71.4394C501.557 70.4955 499.669 69.5517 497.781 68.6078C495.893 67.6639 493.062 67.6639 489.286 67.6639H471.353C468.521 67.6639 465.689 67.6639 462.858 68.6078C460.97 69.5517 459.082 70.4955 458.138 71.4394C457.194 72.3833 456.251 74.271 455.307 76.1588C454.363 78.0466 454.363 80.8782 454.363 84.6537V128.072H433.598V83.7098C433.598 77.1027 434.541 72.3833 435.485 67.6639C436.429 62.9445 438.317 60.1129 441.149 57.2813C443.98 54.4496 447.756 52.5619 452.475 51.618C457.194 50.6741 462.858 49.7303 470.409 49.7303H491.174C498.725 49.7303 504.388 50.6741 509.108 51.618C513.827 52.5619 517.603 54.4496 520.434 57.2813C523.266 60.1129 525.154 62.9445 526.097 67.6639C527.041 72.3833 527.985 77.1027 527.985 83.7098V128.072H527.041ZM628.98 69.5517C586.505 69.5517 568.572 69.5517 564.796 69.5517C561.965 69.5517 560.077 69.5517 559.133 70.4955C558.189 71.4394 557.245 72.3833 557.245 73.3272V103.531C557.245 105.419 558.189 106.363 559.133 107.307C560.077 108.251 561.965 108.251 564.796 108.251C568.572 108.251 577.067 108.251 600.664 108.251C603.495 108.251 605.383 108.251 606.327 107.307C607.271 106.363 608.215 105.419 608.215 104.475V95.9802H581.786V80.8782H628.98C628.98 91.2608 628.98 99.7557 628.98 107.307C628.98 110.138 628.98 112.97 628.036 114.858C627.092 116.745 626.148 118.633 624.26 120.521C622.373 122.409 620.485 123.353 618.597 124.296C617.653 125.24 614.822 126.184 611.99 126.184C609.159 126.184 605.383 127.128 600.664 127.128C595.944 127.128 592.169 127.128 583.674 127.128C575.179 127.128 571.403 127.128 566.684 127.128C561.965 127.128 558.189 127.128 555.358 126.184C552.526 126.184 549.694 125.24 547.807 124.296C545.919 123.353 544.031 122.409 542.143 120.521C540.256 118.633 539.312 116.745 538.368 114.858C537.424 112.97 537.424 110.138 537.424 106.363C537.424 98.8118 537.424 87.4853 537.424 71.4394C537.424 64.8323 539.312 59.169 544.031 55.3935C547.807 51.618 554.414 49.7303 562.909 49.7303C576.123 49.7303 595 49.7303 628.98 49.7303V69.5517ZM662.016 96.9241V100.7C662.016 103.531 662.016 105.419 662.959 106.363C662.959 108.251 663.903 109.194 664.847 110.138C665.791 111.082 666.735 111.082 668.623 112.026C670.51 112.026 672.398 112.026 675.23 112.026H684.669C694.107 112.026 700.715 119.577 700.715 128.072H675.23C662.959 128.072 654.465 126.184 648.801 121.465C643.138 115.802 640.306 108.251 640.306 97.868V79.9343C640.306 74.2711 641.25 69.5517 642.194 65.7762C643.138 62.0007 645.026 59.169 647.857 56.3374C650.689 54.4496 654.465 52.5619 659.184 51.618C662.959 50.6741 668.623 49.7303 676.174 49.7303H708.265C713.929 49.7303 718.648 50.6741 722.424 51.618C726.199 52.5619 729.031 54.4496 730.919 56.3374C732.806 57.2813 734.694 60.1129 735.638 62.9445C736.582 65.7762 736.582 68.6078 736.582 71.4394V96.9241H662.016ZM714.873 72.3833C714.873 69.5517 713.929 67.6639 712.985 67.6639C712.041 66.72 709.209 66.72 706.378 66.72H676.174C673.342 66.72 671.454 66.72 669.567 66.72C667.679 66.72 666.735 67.6639 664.847 68.6078C663.903 69.5517 662.959 70.4955 662.016 72.3833C661.072 74.271 661.072 76.1588 661.072 78.9904V82.7659H714.873V72.3833ZM743.189 128.072V81.8221C743.189 76.1588 744.133 71.4394 745.077 67.6639C746.021 63.8884 748.852 60.1129 751.684 57.2813C754.516 54.4496 758.291 52.5619 763.01 51.618C766.786 50.6741 772.449 49.7303 779.056 49.7303H780V66.72C777.169 66.72 773.393 66.72 771.505 67.6639C769.617 67.6639 767.73 68.6078 766.786 69.5517C765.842 70.4955 764.898 72.3833 763.954 74.271C763.954 76.1588 763.01 78.9904 763.01 81.8221V128.072H743.189ZM241.047 111.082C238.215 111.082 235.383 111.082 233.496 110.138C231.608 110.138 230.664 108.251 228.776 107.307C227.832 106.363 226.889 105.419 225.945 103.531C225.945 101.643 225.001 98.8118 225.001 95.9802V67.6639H225.945C235.383 67.6639 242.935 60.1129 242.935 50.6741H225.001V24.2456H204.236V49.7303H196.685V66.72H204.236V95.9802C204.236 101.643 205.179 106.363 206.123 110.138C207.067 113.914 209.899 117.689 212.73 119.577C215.562 122.409 219.338 124.296 224.057 125.24C228.776 126.184 234.44 127.128 240.103 127.128H244.822V110.138H241.047V111.082Z"
        fill="url(#paint1_linear_505_444)" />
    <defs>
        <linearGradient id="paint0_linear_505_444" x1="1.58742" y1="79.1522" x2="157.52" y2="70.9799"
            gradientUnits="userSpaceOnUse">
            <stop stop-color="white" />
            <stop offset="0.0001" stop-color="white" />
        </linearGradient>
        <linearGradient id="paint1_linear_505_444" x1="197.475" y1="75.9644" x2="780.027" y2="75.9644"
            gradientUnits="userSpaceOnUse">
            <stop stop-color="white" />
            <stop offset="0.0001" stop-color="white" />
        </linearGradient>
    </defs>
</svg>